inDegrees=yes
name=ik_S44_A13_T01
DataType=double
version=3
OpenSimVersion=4.3-2021-08-27-4bc7ad9
endheader
time	pelvis_tilt	pelvis_list	pelvis_rotation	pelvis_tx	pelvis_ty	pelvis_tz	hip_flexion_r	hip_adduction_r	hip_rotation_r	knee_angle_r	knee_angle_r_beta	ankle_angle_r	subtalar_angle_r	mtp_angle_r	hip_flexion_l	hip_adduction_l	hip_rotation_l	knee_angle_l	knee_angle_l_beta	ankle_angle_l	subtalar_angle_l	mtp_angle_l	lumbar_extension	lumbar_bending	lumbar_rotation	arm_flex_r	arm_add_r	arm_rot_r	elbow_flex_r	pro_sup_r	wrist_flex_r	wrist_dev_r	arm_flex_l	arm_add_l	arm_rot_l	elbow_flex_l	pro_sup_l	wrist_flex_l	wrist_dev_l
6.199999999999956	2.978766980654479	2.19428637878015	22.12722730671841	0	0.9399999999999999	0	22.45289461519875	-8.118253315322432	-6.947636419677104	26.16061768731838	0.4565889129991701	0	0	0	22.45289461519875	-8.118253315322432	-6.947636419677104	26.16061768731838	0.4565889129991701	0	0	0	4.035453860071228	1.412198519458757	9.746821990002639	75.48480022630773	-2.523063226801245	26.26989336439398	18.03830042178472	127.2043162604226	0	0	81.39335370001216	3.27224932923765	29.41016059920601	22.9861808798112	131.5591689841832	0	0
6.219999999999955	2.970288089063826	2.205431072882917	22.1275210953793	0	0.9399999999999999	0	22.46121054047105	-8.120447874654406	-6.949930486063926	26.1687290812487	0.4567304835301805	0	0	0	22.46121054047105	-8.120447874654406	-6.949930486063926	26.1687290812487	0.4567304835301805	0	0	0	4.031863248811484	1.424426835548256	9.732809333149913	76.29874825173475	-2.585304087229207	26.73962529050565	18.35104437361253	126.1662593704206	0	0	81.38570104758672	3.300878950645118	29.38727130706696	22.62859555329268	130.4265931149574	0	0
6.239999999999955	3.041146192931994	2.026696313598247	22.32448556045173	0	0.9399999999999999	0	22.47017027552541	-8.122822721094821	-6.952409040189469	26.17742980671275	0.4568823398368403	0	0	0	22.47017027552541	-8.122822721094821	-6.952409040189469	26.17742980671275	0.4568823398368403	0	0	0	4.026051037417259	1.245877069358463	9.902359988912879	77.13943346223103	-2.992089563830186	26.85765421824866	18.64987121082983	125.3660194383606	0	0	80.53438391269761	3.953056409020852	28.61626876706252	22.58072701108163	130.7973495215311	0	0
6.259999999999954	3.049807369247494	1.994891556338162	22.32264711529014	0	0.9399999999999999	0	22.48046582486009	-8.125552888688462	-6.955258369728362	26.18741607146573	0.4570566330367556	0	0	0	22.48046582486009	-8.125552888688462	-6.955258369728362	26.18741607146573	0.4570566330367556	0	0	0	4.02206859489016	1.213098384553039	9.903063822857817	77.82628835178673	-3.064981864959045	27.38197897428944	18.60412694907701	124.2626860809178	0	0	80.30662033246089	4.085336341421582	27.73729530784493	22.18469547690814	130.8630474150718	0	0
6.279999999999954	3.065982606918345	1.946642174739089	22.35895524149828	0	0.9399999999999999	0	22.49064009831291	-8.128242668305461	-6.958069447739966	26.1973023291582	0.4572291807841898	0	0	0	22.49064009831291	-8.128242668305461	-6.958069447739966	26.1973023291582	0.4572291807841898	0	0	0	4.020136747451512	1.159155956630149	9.86872621310742	78.94283801678485	-3.191760626460772	28.55472243329659	18.462600613882	121.1497769592321	0	0	80.13131441325137	4.130250547238699	26.7701981644838	21.72230071012684	130.8378117758636	0	0
6.299999999999954	3.088403656671546	1.924370518569766	22.63936423558698	0	0.9399999999999999	0	22.51404315744382	-8.134336401762026	-6.964483244323882	26.22022904253231	0.4576293274192291	0	0	0	22.51404315744382	-8.134336401762026	-6.964483244323882	26.22022904253231	0.4576293274192291	0	0	0	4.043331125794021	1.110724780168202	9.614595431561423	79.37402414792102	-3.251603517876187	28.74959167955939	18.97285300754518	116.1704922083661	0	0	79.99668271126748	4.180862793201063	25.56005221273278	21.34191690967235	131.3076331918097	0	0
6.319999999999953	3.100548865252813	1.880293839037322	22.70236581573576	0	0.9399999999999999	0	22.69478858219284	-8.167687782085741	-7.005334601955666	26.4385475180594	0.4614397036351115	0	0	0	22.69478858219284	-8.167687782085741	-7.005334601955666	26.4385475180594	0.4614397036351115	0	0	0	4.034869017686083	1.060502169225737	9.540848975877559	79.80913081623109	-3.285833298661092	28.7000383338147	19.13813190616321	114.6634279939727	0	0	80.20730873016112	4.255437317658949	23.19805906487324	19.7843236084822	130.9691078027349	0	0
6.339999999999953	3.125815857925222	1.866837591146681	22.70026412444803	0	0.9399999999999999	0	22.70747815682126	-8.17099991054617	-7.008819135026905	26.45087544171944	0.4616548664929138	0	0	0	22.70747815682126	-8.17099991054617	-7.008819135026905	26.45087544171944	0.4616548664929138	0	0	0	4.052199137627717	1.039451423676219	9.555217226413534	80.18910455711284	-3.259446758965538	28.54533927610587	19.00262785744604	113.9803686747841	0	0	80.18822298068304	4.38708529874903	22.7397130955233	19.61144735664316	131.5031913641243	0	0
6.359999999999952	3.149150981525249	1.848645303247302	22.64373680221065	0	0.9399999999999999	0	22.72455609393226	-8.175364594235333	-7.013453490150981	26.46769986014045	0.4619485079890935	0	0	0	22.72455609393226	-8.175364594235333	-7.013453490150981	26.46769986014045	0.4619485079890935	0	0	0	4.066021988750955	1.016473207264461	9.580726044148623	80.14390795957189	-3.201658715191773	28.49240272917331	19.24869364326554	112.0136813697336	0	0	80.1907456614715	4.506966718139225	22.70151927852364	19.07740766433244	130.6755622832331	0	0
6.379999999999952	3.14506122434245	1.839151528509493	22.69816418821863	0	0.9399999999999999	0	22.74277353658871	-8.180067533208188	-7.018427242453842	26.48549041530375	0.4622590117524507	0	0	0	22.74277353658871	-8.180067533208188	-7.018427242453842	26.48549041530375	0.4622590117524507	0	0	0	4.059956414349155	1.003910029165618	9.510936414767714	80.54863033837482	-3.077222836775947	28.34435967250517	19.22852502171046	110.6481813926017	0	0	80.19020579064096	4.509360704838701	22.70011544268619	18.87931245703491	129.3633778901468	0	0
6.399999999999952	3.162983834378002	1.813790414887392	22.59394770792663	0	0.9399999999999999	0	22.75056397849796	-8.182093293269194	-7.020563163454924	26.49305669295978	0.4623910682096685	0	0	0	22.75056397849796	-8.182093293269194	-7.020563163454924	26.49305669295978	0.4623910682096685	0	0	0	4.065609486882056	0.9765024315124535	9.546114206380445	80.92675496691751	-2.989387017963269	28.31930401710093	19.22011616530949	110.2985806933696	0	0	80.18207138451157	4.688554996387436	22.93650476216495	18.73467202009576	128.683394703867	0	0
6.419999999999951	3.181887597117752	1.797351811451292	22.50134813221051	0	0.9399999999999999	0	22.75855095480846	-8.184167495950932	-7.022751508464137	26.5008183135443	0.462526534044159	0	0	0	22.75855095480846	-8.184167495950932	-7.022751508464137	26.5008183135443	0.462526534044159	0	0	0	4.076880931833442	0.9520886480333017	9.527632789743146	81.2906263656418	-2.935648238522955	28.40493384287735	19.31496575662232	111.2173749897591	0	0	80.16674528038172	4.562241999934966	22.96962844002487	18.81668069966114	128.5189956197147	0	0
6.439999999999951	3.227415566170878	1.749961471045043	22.32527849847258	0	0.9399999999999999	0	22.7653778204989	-8.185908828862274	-7.024602039965673	26.50755077127029	0.4626440375982289	0	0	0	22.7653778204989	-8.185908828862274	-7.024602039965673	26.50755077127029	0.4626440375982289	0	0	0	4.098106621000911	0.8984045779172507	9.628749160622442	81.51926387620108	-2.732489152209717	28.54849569173402	19.06038797140518	109.6231132236749	0	0	80.24010303912732	4.781651493670446	23.14635829293974	18.69340894036391	128.2259855103421	0	0
6.45999999999995	3.231302010478312	1.73709344415192	22.26377964157651	0	0.9399999999999999	0	22.77499183596691	-8.188396367382127	-7.027230899768503	26.51691277323196	0.4628074353570382	0	0	0	22.77499183596691	-8.188396367382127	-7.027230899768503	26.51691277323196	0.4628074353570382	0	0	0	4.096935317488701	0.8814048724048303	9.592146573020134	81.74119032421851	-2.567699250403676	29.61710073751755	19.0612108869548	107.8237726961246	0	0	80.40226554293132	4.815912204605124	23.1398862335606	18.69049479506614	128.3465134306045	0	0
6.47999999999995	3.239530593866475	1.726232290722107	22.25386323881933	0	0.9399999999999999	0	22.78519906457053	-8.191044876973255	-7.030027180308414	26.52682086312492	0.4629803641482539	0	0	0	22.78519906457053	-8.191044876973255	-7.030027180308414	26.52682086312492	0.4629803641482539	0	0	0	4.10059168581004	0.8671034183899257	9.579036114468922	81.72605498093445	-2.542522810642593	29.9614667193671	19.81262399075457	107.4797468346311	0	0	80.55185571354585	4.923479504490899	23.09310739414203	18.59893355891428	128.5763694335338	0	0
6.499999999999949	3.259962798981698	1.713504606452201	22.41156736017044	0	0.9399999999999999	0	22.80665853865054	-8.196501733354427	-7.035839550334535	26.54793193513529	0.4633488218634604	0	0	0	22.80665853865054	-8.196501733354427	-7.035839550334535	26.54793193513529	0.4633488218634604	0	0	0	4.116858876156698	0.8295149129978966	9.378947538716229	81.63496124542438	-2.348044566807211	30.14850716602541	19.87798687114173	104.2568788534812	0	0	80.66848634828717	4.990867629115935	22.95311751267109	18.42387742467142	128.6726695706622	0	0
6.519999999999949	3.267804747208391	1.708897547140379	22.31138072147485	0	0.9399999999999999	0	22.82422058780298	-8.200962644921502	-7.040595253726321	26.5651890292905	0.4636500149757955	0	0	0	22.82422058780298	-8.200962644921502	-7.040595253726321	26.5651890292905	0.4636500149757955	0	0	0	4.120734837737825	0.8262913183570777	9.423767594818603	81.63678903657333	-2.227342949270089	30.14393808721957	20.02308940737558	103.0213299049055	0	0	80.81668787417685	5.108240188031051	22.77665554476143	18.27631403716584	128.3408193255729	0	0
6.539999999999949	3.252676585041046	1.732065639337575	22.21982379997723	0	0.9399999999999999	0	22.83191197572617	-8.202928569177176	-7.042684644599089	26.57272682965772	0.4637815744105616	0	0	0	22.83191197572617	-8.202928569177176	-7.042684644599089	26.57272682965772	0.4637815744105616	0	0	0	4.113211461751901	0.8592314465782207	9.492946376036942	81.69481008291065	-2.23072059744133	29.99020118518168	20.16815300382067	103.2750448219128	0	0	80.86717160898812	5.232205044694653	22.58512725996675	18.28050371631196	127.3749276158088	0	0
6.559999999999948	3.257874675185458	1.724756677016645	22.15096442439974	0	0.9399999999999999	0	22.83876027310588	-8.204672109587966	-7.044540743506393	26.57945795681842	0.4638990547418863	0	0	0	22.83876027310588	-8.204672109587966	-7.044540743506393	26.57945795681842	0.4638990547418863	0	0	0	4.114121731217821	0.8536038006316876	9.53018422386406	81.69867686082127	-2.164679700123701	29.6623182967718	20.38356962188683	103.325301918706	0	0	80.89324225563661	5.337083665790565	22.46765972294627	18.20347268744791	126.9191044951965	0	0
6.579999999999948	3.27185700344582	1.71717609922361	22.17094814859355	0	0.9399999999999999	0	22.8462561509261	-8.206548378591041	-7.046551846650467	26.58692791701271	0.4640294301422694	0	0	0	22.8462561509261	-8.206548378591041	-7.046551846650467	26.58692791701271	0.4640294301422694	0	0	0	4.125140686437653	0.8384651201884061	9.496677920068961	81.6903625425963	-2.13401676749323	29.62675025289015	20.45646883366834	101.9473101755679	0	0	81.08070562749222	5.349367326796791	22.32396176891768	18.19880182405631	126.9596615442637	0	0
6.599999999999947	3.26702395941924	1.728057734777285	22.2653068062999	0	0.9399999999999999	0	22.85926808391206	-8.209894029168618	-7.050100642283139	26.59959176725338	0.4642504560249486	0	0	0	22.85926808391206	-8.209894029168618	-7.050100642283139	26.59959176725338	0.4642504560249486	0	0	0	4.126295204250338	0.8437150267754008	9.415006940398671	81.52470252319627	-2.11235584797994	29.3975209228798	20.62539533942288	100.3828532372942	0	0	81.37120903078572	5.314573495110541	22.02126741891573	18.17541801441094	128.0034988126007	0	0
6.619999999999947	3.279525064198523	1.727609210674729	22.31712499617388	0	0.9399999999999999	0	22.87428700603221	-8.213760094682238	-7.054200595405296	26.61417793073757	0.4645050326029819	0	0	0	22.87428700603221	-8.213760094682238	-7.054200595405296	26.61417793073757	0.4645050326029819	0	0	0	4.138053488091638	0.8349134251646452	9.372851021857777	81.23782198563624	-2.128927128674804	29.21590484585873	20.90141082713002	98.62179589372192	0	0	81.38371533560638	5.273932577679372	22.02247399162921	18.33118735766611	128.5440122091546	0	0
